<?xml version="1.0" encoding="utf-8"?>
<!-- Generator: Adobe Illustrator 20.1.0, SVG Export Plug-In . SVG Version: 6.00 Build 0)  -->
<svg version="1.1" id="Layer_1" xmlns="http://www.w3.org/2000/svg" xmlns:xlink="http://www.w3.org/1999/xlink" x="0px" y="0px"
	 viewBox="0 0 509 513" style="enable-background:new 0 0 509 513;" xml:space="preserve">
<style type="text/css">
	.st0{fill-rule:evenodd;clip-rule:evenodd;fill:#FFFFFF;}
</style>
<g>
	<g>
		<path class="st0" d="M259.1,0C121.1,0,9.2,111.9,9.2,249.9c0,47.2,13.1,91.4,35.9,129L0,513l138.3-44.3
			c35.8,19.8,77,31.1,120.8,31.1c138,0,249.9-111.9,249.9-249.9C509,111.9,397.1,0,259.1,0z M259.1,457.9
			c-42.2,0-81.6-12.7-114.4-34.4l-79.9,25.6l26-77.2c-24.9-34.3-39.6-76.4-39.6-122c0-114.7,93.3-208,208-208
			c114.7,0,208,93.3,208,208C467.1,364.6,373.8,457.9,259.1,457.9z M376.3,306.7c-6.3-3.4-37-20-42.8-22.4c-5.8-2.3-10-3.6-14.5,2.7
			c-4.5,6.2-17.3,20.1-21.1,24.2c-3.9,4.1-7.6,4.5-13.9,1.1c-6.2-3.4-26.6-10.9-50.1-33.6c-18.3-17.6-30.3-39-33.8-45.5
			c-3.5-6.5,0-9.9,3.3-12.9c3-2.8,6.7-7.2,10-10.8c3.3-3.6,4.5-6.2,6.8-10.4c2.3-4.2,1.4-7.9-0.1-11.2c-1.5-3.2-13.1-35.1-17.9-48.1
			c-4.8-13-10.2-11-13.9-11.2c-3.7-0.1-8-0.8-12.2-1c-4.3-0.2-11.2,1.2-17.3,7.3c-6.1,6.2-23.1,21-24.3,52.4
			c-1.2,31.4,20.5,62.6,23.6,66.9c3,4.4,41.5,72.4,105.3,100.4c63.9,28,64.2,19.4,75.9,18.8c11.7-0.6,38.3-14,44.2-28.7
			c5.9-14.7,6.3-27.5,4.9-30.2C386.7,311.8,382.5,310.1,376.3,306.7z"/>
	</g>
</g>
</svg>
