<?xml version="1.0" encoding="utf-8"?>
<!-- Generator: Adobe Illustrator 22.1.0, SVG Export Plug-In . SVG Version: 6.00 Build 0)  -->
<svg version="1.1" id="LOGO_OFICIAL_3_1_" xmlns="http://www.w3.org/2000/svg" xmlns:xlink="http://www.w3.org/1999/xlink" x="0px"
	 y="0px" viewBox="0 0 240 240" style="enable-background:new 0 0 240 240;" xml:space="preserve">
<style type="text/css">
	.st0{fill:#FFFFFF;}
	.st1{display:none;fill:#FFFFFF;}
</style>
<g>
	<path class="st0" d="M176.905,51.576c-6.063-8.112-10.254-17.09-12.575-26.936c-2.32-9.846-8.553-14.936-18.698-15.271
		c-10.145-0.334-19.803-2.667-28.976-6.999c-9.172-4.331-17.053-2.65-23.64,5.045c-6.588,7.694-14.44,13.764-23.558,18.209
		c-9.118,4.445-12.711,11.632-10.781,21.561c1.93,9.929,1.797,19.831-0.4,29.705c-2.197,9.874,1.202,17.155,10.196,21.842
		c8.995,4.687,16.681,10.965,23.059,18.832c6.378,7.868,14.21,9.759,23.496,5.675c9.286-4.084,19.004-6.158,29.154-6.221
		c10.15-0.063,16.518-4.985,19.102-14.765c2.585-9.78,7.017-18.644,13.296-26.59S182.968,59.687,176.905,51.576z M139.73,80.212
		l-6.617-29.867c-0.18-0.818-0.501-1.548-0.97-2.196c-0.463-0.649-1.03-1.183-1.69-1.602c-0.659-0.425-1.384-0.709-2.169-0.856
		c-0.785-0.147-1.591-0.136-2.409,0.049c-0.823,0.18-1.564,0.501-2.229,0.97c-0.665,0.469-1.215,1.03-1.651,1.695
		c-0.441,0.665-0.736,1.384-0.883,2.169c-0.147,0.785-0.131,1.581,0.049,2.398l6.617,29.867l-11.958,2.632l-6.617-29.867
		c-0.18-0.818-0.507-1.548-0.992-2.196c-0.48-0.643-1.052-1.177-1.711-1.597c-0.665-0.42-1.384-0.703-2.175-0.856
		c-0.785-0.147-1.586-0.131-2.409,0.049c-0.818,0.18-1.559,0.507-2.224,0.97c-0.665,0.469-1.21,1.03-1.635,1.695
		c-0.42,0.659-0.714,1.379-0.878,2.164c-0.163,0.79-0.158,1.591,0.027,2.409l6.616,29.867l-11.958,2.627L85.25,60.87
		c-0.54-2.453-0.583-4.867-0.131-7.249c0.458-2.382,1.319-4.556,2.589-6.518c1.275-1.962,2.894-3.652,4.872-5.069
		c1.978-1.412,4.208-2.393,6.698-2.943c2.229-0.491,4.453-0.572,6.676-0.245c2.224,0.322,4.333,1.041,6.333,2.164
		c1.313-1.848,2.899-3.385,4.763-4.605c1.864-1.221,3.93-2.082,6.181-2.578c2.491-0.55,4.927-0.594,7.303-0.136
		c2.371,0.458,4.551,1.314,6.535,2.562c1.978,1.248,3.684,2.856,5.101,4.823c1.417,1.968,2.398,4.18,2.943,6.633l6.617,29.867
		L139.73,80.212z"/>
	<path class="st1" d="M169.697,13.641c-1.878-2.608-4.14-4.739-6.762-6.394c-2.63-1.654-5.52-2.789-8.662-3.396
		c-3.15-0.607-6.379-0.549-9.681,0.181c-2.984,0.657-5.722,1.799-8.193,3.417s-4.573,3.656-6.314,6.105
		c-2.651-1.488-5.447-2.442-8.395-2.868c-2.948-0.433-5.895-0.325-8.85,0.325c-3.302,0.73-6.257,2.03-8.879,3.901
		c-2.623,1.878-4.768,4.118-6.459,6.719c-1.683,2.601-2.825,5.484-3.432,8.641c-0.6,3.157-0.542,6.358,0.173,9.609l8.771,39.591
		l15.851-3.482l-8.771-39.591c-0.246-1.084-0.253-2.146-0.036-3.193c0.217-1.04,0.607-1.994,1.163-2.868
		c0.563-0.881,1.286-1.626,2.167-2.247c0.881-0.614,1.864-1.048,2.948-1.286c1.091-0.238,2.153-0.26,3.193-0.065
		c1.048,0.202,2.001,0.578,2.883,1.134c0.874,0.556,1.633,1.264,2.269,2.117c0.643,0.86,1.076,1.828,1.315,2.912l8.771,39.591
		l15.851-3.49l-8.771-39.591c-0.238-1.084-0.26-2.138-0.065-3.179c0.195-1.04,0.585-1.994,1.17-2.875
		c0.578-0.881,1.308-1.626,2.189-2.247c0.881-0.621,1.864-1.048,2.955-1.286c1.084-0.246,2.153-0.26,3.193-0.065
		c1.04,0.195,2.001,0.571,2.875,1.134c0.874,0.556,1.626,1.264,2.24,2.124c0.621,0.86,1.048,1.828,1.286,2.912l8.771,39.591
		l15.909-3.497l-8.771-39.591C172.876,19.182,171.576,16.249,169.697,13.641z"/>
</g>
</svg>
